# xmcd
#
# Track frame offsets:
# 150
# 5090
# 32975
# 59322
# 73302
# 96562
# 99802
# 122807
# 148945
# 175690
# 186725
# 190640
# 216550
# 230967
#
# Disc length: 3143 seconds
#
# Revision: 0
# Processed by: cddbd v1.4PL0 Copyright (c) Steve Scherf et al.
# Submitted via: MacMP3 Pro 5.0 (http://mp3.act2.co.jp/)
#
DISCID=e10c450e
DTITLE=Tsukasa Nishi - Ballad Cocktail
DYEAR=1900
DGENRE=
TTITLE0=WHEN YOU WISH UPON STAR - pinocchio -
TTITLE1=TAKE ME TO YOUR LIFE
TTITLE2=TOO YOUNG - to be loved,to love -
TTITLE3=Yaneurabeya No Tenmado Kara
TTITLE4=Sugu Sobani Iru - I'm by your side -
TTITLE5=DON'T FORGET MY LOVE
TTITLE6=ON THE WAY TO HOMETOWN
TTITLE7=Kaze No Yubisaki
TTITLE8=Yakanhikou
TTITLE9=SNOW ON THE SEA - Umi Ni Furu Yuki -
TTITLE10=CHRISTMAS CAROL
TTITLE11=NEVER SAY SO
TTITLE12=Valentine's Eve - Ribon Wo Hodoite -
TTITLE13=LOVE SYMPHONY NO.9
EXTD=
EXTT0=
EXTT1=
EXTT2=
EXTT3=
EXTT4=
EXTT5=
EXTT6=
EXTT7=
EXTT8=
EXTT9=
EXTT10=
EXTT11=
EXTT12=
EXTT13=
PLAYORDER=
